<svg xmlns="http://www.w3.org/2000/svg" width="50" height="50">
  <path d="M25 1C11.222656 1 0 10.878906 0 23.1875c0 6.046875 2.773438 11.476563 7.21875 15.5-.671875 2.074219-2.171875 3.710938-3.6875 4.96875-.816406.675781-1.597656 1.253906-2.21875 1.8125-.308594.277344-.589844.558594-.8125.90625-.222656.347656-.421875.84375-.28125 1.375l.125.40625.34375.21875c1.289063.742188 2.894531.871094 4.625.75 1.730469-.121094 3.617188-.519531 5.46875-1.03125 3.59375-.992187 6.96875-2.40625 8.75-3.1875 1.757813.367188 3.523438.59375 5.375.59375 13.777344 0 25-9.878906 25-22.1875C49.90625 11.007813 38.78125 1 25 1zm0 2c12.820313 0 22.90625 9.214844 22.90625 20.3125 0 11.089844-10.175781 20.1875-23 20.1875-1.828125 0-3.550781-.179687-5.28125-.5625l-.34375-.09375L19 43c-1.671875.738281-5.207031 2.179688-8.75 3.15625-1.773437.488281-3.539062.863281-5.0625.96875-1.019531.070313-1.648437-.171875-2.34375-.34375.496094-.425781 1.175781-.933594 1.96875-1.59375 1.742188-1.445312 3.832031-3.457031 4.5625-6.4375l.15625-.625-.5-.375C4.625 34.015625 2 28.875 2 23.1875 2 12.097656 12.175781 3 25 3zm-1.1875 9.8125c-.300781 0-.40625.175781-.40625.375v2.625c0 .300781.207031.375.40625.375h2.375c.300781 0 .40625-.175781.40625-.375v-2.625c0-.300781-.207031-.375-.40625-.375zm.09375 7.28125c-.300781 0-.40625.207031-.40625.40625v13.40625c0 .300781.207031.40625.40625.40625v.09375h2.28125c.300781 0 .40625-.207031.40625-.40625V20.5c0-.300781-.207031-.40625-.40625-.40625z"/>
</svg>
