<svg xmlns="http://www.w3.org/2000/svg" xmlns:xlink="http://www.w3.org/1999/xlink" width="191" height="63" viewBox="0 0 191 63"><defs><path id="3i3la" d="M530.7 191.03h4.43l-2.16-8.08h-.12zm28.08-5.55c0-1.65-1.2-2.84-2.96-2.84h-2.73v5.64h2.71c1.85 0 2.98-1.12 2.98-2.8zm23.02 3.3c0-3.75-1.86-5.77-5.01-5.77h-2.06v11.86h2.06c3.29 0 5.01-2 5.01-6.1zm58.5 2.25h4.44l-2.16-8.08h-.12zm13.8 9.03h-7l-1.17-4.42h-6.82l-1.16 4.42h-6.7l7.3-22.25h8.25zm-24.84 0h-15.79v-22.25h15.8v5.2h-9.22v3.6h8.64v4.68h-8.64v3.58h9.21zm-25.05-12.36l7.71 12.36h-7.65l-4.88-8.17-1.75 2.35v5.82h-6.58v-22.25h6.58v9.44h.12l6.92-9.44h6.9zm-15.71 1.08c0 7.12-4 11.28-10.78 11.28h-9.57v-22.25h9.57c6.8 0 10.78 3.84 10.78 10.97zm-26.61 2.85l4.24 8.43h-7.35l-3.53-7.46h-2.16v7.46h-6.58v-22.25h9.95c5.97 0 9.04 2.8 9.04 7.56 0 2.62-1.27 5.15-3.61 6.26zm-17.4 8.43h-7l-1.17-4.42h-6.82l-1.16 4.42h-6.7l7.3-22.25h8.25zm-24.87 0h-6.58v-8.6h-7.88v8.6h-6.57v-22.25h6.57v8.45h7.88v-8.45h6.58zM670 215.26v-50.52a4.75 4.75 0 0 0-4.76-4.74H485.76a4.75 4.75 0 0 0-4.76 4.74v50.52a4.75 4.75 0 0 0 4.76 4.74H665.24a4.75 4.75 0 0 0 4.76-4.74z"/></defs><g><g transform="translate(-480 -158)"><use fill="#fff" xlink:href="#3i3la"/></g></g></svg>