<svg xmlns="http://www.w3.org/2000/svg" viewBox="0 0 48 48">
  <path d="M1.8 0C.7.2 0 1 0 2c0 1.1.9 2 2 2s2-.9 2-2h4.7c1.2 0 1.9.3 2.4.7.5.4.9 1.1 1.2 2.2l8 32.3c.3 1.1.6 2.3 1.4 3.3.3.4.8.7 1.3 1-.6.7-1 1.6-1 2.5 0 2.2 1.8 4 4 4s4-1.8 4-4c0-.7-.2-1.4-.6-2h6.1c-.3.6-.6 1.3-.6 2 0 2.2 1.8 4 4 4s4-1.8 4-4c0-1-.4-1.9-1.1-2.7.1-.3.1-.6-.1-.9-.1-.2-.4-.4-.7-.4H25.7c-1.5 0-2.2-.3-2.6-.8-.4-.5-.7-1.3-1-2.4l-.6-2.8h18.3c.4 0 .8-.3.9-.7l7.2-19c.1-.3.1-.6-.1-.9s-.5-.4-.8-.4H16.3l-2.1-8.5v-.1c-.4-1.3-.9-2.4-1.8-3.2S10.2 0 8.7 0H1.8zm15 15h28.8l-6.4 17H21l-4.2-17zM26 42c1.1 0 2 .9 2 2s-.9 2-2 2-2-.9-2-2 .9-2 2-2zm13 0c1.1 0 2 .9 2 2s-.9 2-2 2-2-.9-2-2 .9-2 2-2z"/>
</svg>
