<svg xmlns="http://www.w3.org/2000/svg" viewBox="0 0 50 37">
  <path fill="#F00" d="M2.8 0C1.3 0 0 1.3 0 2.8V29c0 1.7 1.3 3 3 3h4.1c.5 2.8 2.9 5 5.9 5s5.4-2.2 5.9-5h9.2c.7 0 1.4-.3 1.9-.8.5.5 1.2.8 1.9.8H33c.5 2.8 2.9 5 5.9 5 3.3 0 6-2.7 6-6s-2.7-6-6-6c-3 0-5.4 2.2-5.9 5h-1c-.2 0-.5-.1-.7-.3s-.3-.5-.3-.7V10c0-.4.6-1 1-1h8c.8 0 1.9.8 2.7 1.8l.2.2H38c-1.6 0-3 1.3-3 3v4c0 .8.4 1.6.9 2.1s1.3.9 2.1.9h10v8c0 .4-.6 1-1 1h-2v2h2c1.7 0 3-1.3 3-3v-9.6c0-2.3-1.6-4.3-1.6-4.3l-4.1-5.5C43.3 8.4 41.9 7 40 7h-8c-.4 0-.7.1-1 .2V2.9C31 1.4 29.8 0 28.2 0H2.8zm0 2h25.3c.5 0 .9.4.9.9v26.2c0 .5-.4.8-.8.8H19c-.5-2.8-2.9-5-5.9-5s-5.4 2.2-5.9 5H3c-.4 0-1-.6-1-1V2.8c0-.4.4-.8.8-.8zM38 13h6.3l2.4 3.2s.9 1.6 1.1 2.8H38c-.2 0-.4-.1-.7-.3s-.3-.5-.3-.7v-4c0-.5.6-1 1-1zM13 27c2.2 0 4 1.8 4 4s-1.8 4-4 4-4-1.8-4-4 1.8-4 4-4zm26 0c2.2 0 4 1.8 4 4s-1.8 4-4 4-4-1.8-4-4 1.8-4 4-4z"/>
</svg>
