<svg xmlns="http://www.w3.org/2000/svg" viewBox="0 0 50 50">
  <path fill="#F00" d="M6 5C3.800781 5 2 6.800781 2 9v22c0 1.953125 1.421875 3.566406 3.28125 3.90625l1.3125 7.40625c.382813 2.164063 2.460938 3.632813 4.625 3.25l33.46875-5.96875c2.164063-.382812 3.632813-2.460937 3.25-4.625L44.09375 13.3125c-.015625-.097656-.046875-.191406-.09375-.28125V9c0-2.199219-1.800781-4-4-4zm0 2h34c1.117188 0 2 .882813 2 2v3H4V9c0-1.117187.882813-2 2-2zM4 17h38v14c0 1.117188-.882812 2-2 2H6c-1.117187 0-2-.882812-2-2zm5 3v2h16v-2zm35 4.21875l1.96875 11.09375c.195313 1.097656-.523437 2.117188-1.625 2.3125L10.875 43.59375c-1.097656.195313-2.117187-.523437-2.3125-1.625L7.3125 35H40c2.199219 0 4-1.800781 4-4z"/>
</svg>
