<svg xmlns="http://www.w3.org/2000/svg" viewBox="0 0 50 50">
	<path d="M25 1C11.2 1 0 10.9 0 23.2c0 6 2.8 11.5 7.2 15.5-.7 2.1-2.2 3.7-3.7 5-.8.7-1.6 1.3-2.2 1.8-.3.2-.6.5-.8.9s-.4.8-.3 1.4l.1.4.3.2c1.3.7 2.9.9 4.6.8s3.6-.5 5.5-1c3.6-1 7-2.4 8.8-3.2 1.8.4 3.5.6 5.4.6 13.8 0 25-9.9 25-22.2C49.9 11 38.8 1 25 1zm0 2c12.8 0 22.9 9.2 22.9 20.3 0 11.1-10.2 20.2-23 20.2-1.8 0-3.6-.2-5.3-.6l-.3-.1-.3.2c-1.7.7-5.2 2.2-8.8 3.2-1.8.5-3.5.9-5.1 1-1 .1-1.6-.2-2.3-.3.5-.4 1.2-.9 2-1.6 1.7-1.4 3.8-3.5 4.6-6.4l.2-.6-.6-.5C4.6 34 2 28.9 2 23.2 2 12.1 12.2 3 25 3zm-1.2 9.8c-.3 0-.4.2-.4.4v2.6c0 .3.2.4.4.4h2.4c.3 0 .4-.2.4-.4v-2.6c0-.3-.2-.4-.4-.4h-2.4zm.1 7.3c-.3 0-.4.2-.4.4v13.4c0 .3.2.4.4.4v.1h2.3c.3 0 .4-.2.4-.4V20.5c0-.3-.2-.4-.4-.4h-2.3z"/>
</svg>
