<svg xmlns="http://www.w3.org/2000/svg" viewBox="0 0 512 512">
  <path d="M110.9 221.8c-4.7 0-8.5 3.8-8.5 8.5v51.2c0 4.7 3.8 8.5 8.5 8.5s8.5-3.8 8.5-8.5v-51.2c.1-4.7-3.8-8.5-8.5-8.5z"/>
  <path d="M111.9 2.3L31.2 34.6C8.4 43 0 54.4 0 76.7v358.5c0 22.3 8.4 33.7 31 42.1l81.1 32.4c4 1.5 8 2.3 12 2.3 17.2 0 29.6-14.3 29.6-34.1V34c-.1-24.2-19.5-40.1-41.8-31.7zm24.6 475.6c0 10.2-5 17-12.5 17-1.9 0-3.9-.4-5.8-1.1l-81.1-32.5c-16.1-6-20-11.1-20-26.1V76.7c0-15 3.9-20.2 20.2-26.2L118 18.2c2.1-.8 4.1-1.2 6-1.2 7.5 0 12.5 6.8 12.5 17v443.9zM178.1 51.1h120.5c14.1 0 25.6 11.5 25.6 25.6v128c0 4.7 3.8 8.5 8.5 8.5s8.5-3.8 8.5-8.5v-128c0-23.5-19.1-42.7-42.7-42.7H178.1c-4.7 0-8.5 3.8-8.5 8.5s3.8 8.6 8.5 8.6zM332.8 298.6c-4.7 0-8.5 3.8-8.5 8.5v128c0 14.1-11.5 25.6-25.6 25.6H179.2c-4.7 0-8.5 3.8-8.5 8.5s3.8 8.5 8.5 8.5h119.5c23.5 0 42.7-19.1 42.7-42.7V307c-.1-4.6-3.9-8.4-8.6-8.4z"/>
  <path d="M511.3 252.7c-.4-1.1-1.1-2-1.9-2.8l-85.3-85.3c-3.3-3.3-8.7-3.3-12.1 0-3.3 3.3-3.3 8.7 0 12.1l70.8 70.8H196.3c-4.7 0-8.5 3.8-8.5 8.5s3.8 8.5 8.5 8.5h286.6l-70.8 70.8c-3.3 3.3-3.3 8.7 0 12.1 1.7 1.7 3.8 2.5 6 2.5s4.4-.8 6-2.5l85.3-85.3c.8-.8 1.4-1.7 1.9-2.8.9-2.2.9-4.6 0-6.6z"/>
</svg>
