<svg xmlns="http://www.w3.org/2000/svg" viewBox="0 0 50 50">
	<path d="M25 2C12.347656 2 2 11.597656 2 23.5c0 6.507813 3.132813 12.285156 8 16.21875v8.9375l1.46875-.78125 7.21875-3.75C20.703125 44.664063 22.800781 45 25 45c12.652344 0 23-9.597656 23-21.5S37.652344 2 25 2zm0 2c11.644531 0 21 8.757813 21 19.5C46 34.242188 36.644531 43 25 43c-2.164062 0-4.257812-.3125-6.21875-.875l-.375-.09375-.34375.1875L12 45.375v-6.5625l-.375-.28125C6.960938 34.941406 4 29.539063 4 23.5 4 12.757813 13.355469 4 25 4zm-2.28125 13.71875l-12.03125 12.75L21.5 24.40625l5.78125 6.1875 11.875-12.875L28.625 23.625z"/>
</svg>
